<?xml version="1.0" encoding="UTF-8"?>
<!DOCTYPE svg PUBLIC "-//W3C//DTD SVG 1.1//EN" "http://www.w3.org/Graphics/SVG/1.1/DTD/svg11.dtd">
<svg xmlns="http://www.w3.org/2000/svg" version="1.1" width="267px" height="185px" style="shape-rendering:geometricPrecision; text-rendering:geometricPrecision; image-rendering:optimizeQuality; fill-rule:evenodd; clip-rule:evenodd" xmlns:xlink="http://www.w3.org/1999/xlink">
<g><path style="opacity:1" fill="#fdfdfd" d="M -0.5,-0.5 C 88.5,-0.5 177.5,-0.5 266.5,-0.5C 266.5,61.1667 266.5,122.833 266.5,184.5C 177.5,184.5 88.5,184.5 -0.5,184.5C -0.5,122.833 -0.5,61.1667 -0.5,-0.5 Z"/></g>
<g><path style="opacity:1" fill="#2a202b" d="M 93.5,30.5 C 94.7682,28.0948 95.4349,25.4282 95.5,22.5C 95.5,21.1667 95.5,19.8333 95.5,18.5C 97.288,18.2148 98.9547,18.5481 100.5,19.5C 103.794,27.0222 106.628,34.6888 109,42.5C 109.967,34.3604 111.467,26.3604 113.5,18.5C 114.5,18.5 115.5,18.5 116.5,18.5C 115.327,27.2057 113.827,35.8724 112,44.5C 110.506,45.7472 109.006,45.7472 107.5,44.5C 104.491,37.1328 101.491,29.7995 98.5,22.5C 96.686,30.088 95.3526,37.7547 94.5,45.5C 93.1667,45.5 91.8333,45.5 90.5,45.5C 90.9783,40.2729 91.9783,35.2729 93.5,30.5 Z"/></g>
<g><path style="opacity:1" fill="#1c1213" d="M 124.5,25.5 C 127.883,25.2572 131.049,25.9239 134,27.5C 134.036,33.4871 133.869,39.4871 133.5,45.5C 131.857,45.5198 130.524,44.8532 129.5,43.5C 123.232,47.3679 119.232,45.8679 117.5,39C 118.27,36.9313 119.603,35.2647 121.5,34C 125.152,33.5014 128.818,33.3347 132.5,33.5C 131.896,28.8478 129.23,27.3478 124.5,29C 123.228,31.2609 121.562,31.7609 119.5,30.5C 120.882,28.4514 122.548,26.7847 124.5,25.5 Z"/></g>
<g><path style="opacity:1" fill="#241a21" d="M 142.5,25.5 C 143.931,25.8807 144.764,26.8807 145,28.5C 148.793,24.5664 152.626,24.5664 156.5,28.5C 158.987,25.536 161.987,24.8693 165.5,26.5C 165.833,27.8333 166.167,29.1667 166.5,30.5C 165.096,35.3945 164.43,40.3945 164.5,45.5C 163.5,45.5 162.5,45.5 161.5,45.5C 161.684,39.7691 162.35,34.1024 163.5,28.5C 159.727,27.8224 156.894,29.1558 155,32.5C 154.441,36.1864 153.774,39.853 153,43.5C 152.275,45.158 151.108,45.658 149.5,45C 150.779,39.5725 151.779,34.0725 152.5,28.5C 149.138,28.0695 146.305,29.0695 144,31.5C 142.679,36.0599 141.846,40.7266 141.5,45.5C 140.5,45.5 139.5,45.5 138.5,45.5C 138.735,40.759 139.402,36.0923 140.5,31.5C 141.738,29.7857 142.405,27.7857 142.5,25.5 Z"/></g>
<g><path style="opacity:1" fill="#1d1115" d="M 176.5,25.5 C 184.571,24.9038 188.237,28.5705 187.5,36.5C 182.5,36.5 177.5,36.5 172.5,36.5C 172.329,41.4943 174.662,43.3276 179.5,42C 181.305,41.028 182.972,39.8613 184.5,38.5C 185.725,40.8433 185.059,42.6766 182.5,44C 172.464,46.8311 168.297,42.9978 170,32.5C 171.694,29.6424 173.861,27.309 176.5,25.5 Z"/></g>
<g><path style="opacity:1" fill="#e1b171" d="M 142.5,25.5 C 142.405,27.7857 141.738,29.7857 140.5,31.5C 140.054,28.9899 140.72,26.9899 142.5,25.5 Z"/></g>
<g><path style="opacity:1" fill="#9b501b" d="M 95.5,22.5 C 95.4349,25.4282 94.7682,28.0948 93.5,30.5C 93.2938,27.5049 93.9605,24.8383 95.5,22.5 Z"/></g>
<g><path style="opacity:1" fill="#f0f1f0" d="M 176.5,28.5 C 178.92,28.2924 181.253,28.6258 183.5,29.5C 184.429,30.6888 184.762,32.0222 184.5,33.5C 180.774,33.8226 177.107,33.4892 173.5,32.5C 174.524,31.1482 175.524,29.8149 176.5,28.5 Z"/></g>
<g><path style="opacity:1" fill="#e6e3e2" d="M 127.5,35.5 C 128.833,35.5 130.167,35.5 131.5,35.5C 130.464,41.7686 126.964,43.7686 121,41.5C 120.333,40.1667 120.333,38.8333 121,37.5C 123.277,36.8828 125.444,36.2161 127.5,35.5 Z"/></g>
<g><path style="opacity:1" fill="#b4dffa" d="M 90.5,49.5 C 82.9558,51.5073 82.6225,54.3407 89.5,58C 87.1902,58.4966 84.8568,58.6633 82.5,58.5C 82.3679,61.8895 82.2012,65.2228 82,68.5C 83.9124,69.6919 85.9124,70.6919 88,71.5C 88.3333,73.5 88.6667,75.5 89,77.5C 89.6708,76.7476 90.5041,76.4142 91.5,76.5C 91.8981,80.8249 89.8981,83.3249 85.5,84C 67.718,85.7105 59.3847,77.8772 60.5,60.5C 67.7827,61.2239 71.7827,57.8905 72.5,50.5C 71.0413,50.5674 69.7079,50.2341 68.5,49.5C 71.0922,46.5441 74.4255,45.2108 78.5,45.5C 81.567,45.6066 84.567,46.1066 87.5,47C 88.9423,47.3768 89.9423,48.2101 90.5,49.5 Z"/></g>
<g><path style="opacity:1" fill="#30bc94" d="M 68.5,49.5 C 69.7079,50.2341 71.0413,50.5674 72.5,50.5C 71.7827,57.8905 67.7827,61.2239 60.5,60.5C 60.8406,57.4842 62.0073,54.8175 64,52.5C 65.129,50.8588 66.629,49.8588 68.5,49.5 Z"/></g>
<g><path style="opacity:1" fill="#2bbb92" d="M 90.5,49.5 C 90.6603,53.1559 92.6603,54.9893 96.5,55C 99.0144,58.8317 98.5144,62.3317 95,65.5C 94.5065,67.1341 94.3398,68.8008 94.5,70.5C 94.1667,70.5 93.8333,70.5 93.5,70.5C 91.744,71.5521 91.0773,73.2188 91.5,75.5C 91.5,75.8333 91.5,76.1667 91.5,76.5C 90.5041,76.4142 89.6708,76.7476 89,77.5C 88.6667,75.5 88.3333,73.5 88,71.5C 85.9124,70.6919 83.9124,69.6919 82,68.5C 82.2012,65.2228 82.3679,61.8895 82.5,58.5C 84.8568,58.6633 87.1902,58.4966 89.5,58C 82.6225,54.3407 82.9558,51.5073 90.5,49.5 Z"/></g>
<g><path style="opacity:1" fill="#201101" d="M 93.5,70.5 C 93.5,76.5 93.5,82.5 93.5,88.5C 92.8333,84.1667 92.1667,79.8333 91.5,75.5C 91.0773,73.2188 91.744,71.5521 93.5,70.5 Z"/></g>
<g><path style="opacity:1" fill="#1e5592" d="M 93.5,70.5 C 93.8333,70.5 94.1667,70.5 94.5,70.5C 94.166,75.9371 94.4993,80.6038 95.5,84.5C 95.8333,84.5 96.1667,84.5 96.5,84.5C 96.2624,86.4044 95.2624,87.7377 93.5,88.5C 93.5,82.5 93.5,76.5 93.5,70.5 Z"/></g>
<g><path style="opacity:1" fill="#291527" d="M 127.5,84.5 C 128.167,83.5 128.833,82.5 129.5,81.5C 129.64,86.7473 131.806,87.7473 136,84.5C 137.713,79.8009 136.213,77.4676 131.5,77.5C 133.54,74.8661 135.707,74.8661 138,77.5C 139.389,83.0577 137.389,86.7244 132,88.5C 130.739,88.2409 129.739,87.5742 129,86.5C 128.667,87.1667 128.333,87.8333 128,88.5C 127.51,87.2068 127.343,85.8734 127.5,84.5 Z"/></g>
<g><path style="opacity:1" fill="#482b34" d="M 98.5,81.5 C 97.0937,81.9731 96.427,82.9731 96.5,84.5C 96.1667,84.5 95.8333,84.5 95.5,84.5C 97.0252,80.4438 98.8585,76.4438 101,72.5C 102.11,70.9632 103.61,70.2965 105.5,70.5C 105.334,75.5111 105.501,80.5111 106,85.5C 107.487,80.5478 109.654,75.8811 112.5,71.5C 113.167,70.1667 113.833,70.1667 114.5,71.5C 112.203,76.953 109.703,82.2863 107,87.5C 105.989,88.3366 104.822,88.67 103.5,88.5C 103.888,83.3722 103.388,78.3722 102,73.5C 100.604,76.0639 99.4373,78.7305 98.5,81.5 Z"/></g>
<g><path style="opacity:1" fill="#efefe9" d="M 131.5,77.5 C 136.213,77.4676 137.713,79.8009 136,84.5C 131.806,87.7473 129.64,86.7473 129.5,81.5C 129.733,79.9382 130.4,78.6049 131.5,77.5 Z"/></g>
<g><path style="opacity:1" fill="#643224" d="M 131.5,77.5 C 130.4,78.6049 129.733,79.9382 129.5,81.5C 128.833,82.5 128.167,83.5 127.5,84.5C 127.734,79.6635 128.734,74.9969 130.5,70.5C 130.917,72.9566 131.251,75.2899 131.5,77.5 Z"/></g>
<g><path style="opacity:1" fill="#1c1011" d="M 117.5,75.5 C 122.811,74.9724 125.145,77.3057 124.5,82.5C 121.167,82.5 117.833,82.5 114.5,82.5C 114.33,83.8221 114.663,84.9887 115.5,86C 118.419,86.54 121.086,86.2067 123.5,85C 115.449,90.6433 112.282,88.4766 114,78.5C 115.145,77.3636 116.312,76.3636 117.5,75.5 Z"/></g>
<g><path style="opacity:1" fill="#ebeeec" d="M 117.5,77.5 C 119.167,77.5 120.833,77.5 122.5,77.5C 122.5,78.5 122.5,79.5 122.5,80.5C 120.076,80.8076 117.743,80.4742 115.5,79.5C 116.243,78.8182 116.909,78.1515 117.5,77.5 Z"/></g>
<g><path style="opacity:1" fill="#275390" d="M 98.5,81.5 C 98.573,83.0269 97.9063,84.0269 96.5,84.5C 96.427,82.9731 97.0937,81.9731 98.5,81.5 Z"/></g>
<g><path style="opacity:1" fill="#6b75c6" d="M 68.5,90.5 C 69.7562,90.4614 70.7562,90.9614 71.5,92C 69.4703,95.5891 68.137,99.4224 67.5,103.5C 66.1667,103.5 64.8333,103.5 63.5,103.5C 63.7683,96.1778 62.935,95.8445 61,102.5C 60.1475,104.125 59.1475,104.458 58,103.5C 56.846,99.553 56.0127,95.553 55.5,91.5C 56.5,91.5 57.5,91.5 58.5,91.5C 59.052,97.969 60.052,97.969 61.5,91.5C 62.5,91.5 63.5,91.5 64.5,91.5C 64.838,93.854 65.338,96.1873 66,98.5C 66.84,95.7983 67.6733,93.1317 68.5,90.5 Z"/></g>
<g><path style="opacity:1" fill="#6d77c6" d="M 86.5,90.5 C 87.7562,90.4614 88.7562,90.9614 89.5,92C 87.2794,95.9949 85.446,100.162 84,104.5C 82.2546,102.911 81.088,100.911 80.5,98.5C 79.8659,100.567 78.8659,102.4 77.5,104C 76.5165,104.591 75.8499,104.257 75.5,103C 74.5765,99.4719 73.5765,95.9719 72.5,92.5C 73.325,91.6143 74.325,91.281 75.5,91.5C 75.9697,98.7422 77.303,99.0755 79.5,92.5C 80.325,91.6143 81.325,91.281 82.5,91.5C 82.523,93.9267 83.023,96.26 84,98.5C 84.84,95.7983 85.6733,93.1317 86.5,90.5 Z"/></g>
<g><path style="opacity:1" fill="#6973c5" d="M 104.5,90.5 C 105.497,90.4701 106.164,90.9701 106.5,92C 104.729,95.6466 103.562,99.4799 103,103.5C 102.586,103.957 102.086,104.291 101.5,104.5C 100.028,102.384 98.8614,100.051 98,97.5C 97.484,100.251 96.3173,102.584 94.5,104.5C 93.1676,100.506 91.8343,96.5057 90.5,92.5C 91.5,91.1667 92.5,91.1667 93.5,92.5C 94.8938,98.8542 95.8938,98.5209 96.5,91.5C 97.8221,91.33 98.9887,91.6634 100,92.5C 100.202,94.2556 100.702,95.9223 101.5,97.5C 102.7,95.2293 103.7,92.896 104.5,90.5 Z"/></g>
<g><path style="opacity:1" fill="#241a24" d="M 93.5,113.5 C 107.533,113.57 110.199,119.07 101.5,130C 97.9399,131.237 94.2733,131.737 90.5,131.5C 90.7279,125.362 91.7279,119.362 93.5,113.5 Z"/></g>
<g><path style="opacity:1" fill="#f4f6f6" d="M 103.5,117.5 C 103.492,120.545 103.159,123.545 102.5,126.5C 102.047,127.458 101.381,128.292 100.5,129C 97.854,129.497 95.1873,129.664 92.5,129.5C 93.9816,124.985 94.6483,120.319 94.5,115.5C 97.1873,115.336 99.854,115.503 102.5,116C 103.056,116.383 103.389,116.883 103.5,117.5 Z"/></g>
<g><path style="opacity:1" fill="#bd7422" d="M 103.5,117.5 C 104.152,118.449 104.486,119.615 104.5,121C 104.607,123.221 103.94,125.054 102.5,126.5C 103.159,123.545 103.492,120.545 103.5,117.5 Z"/></g>
<g><path style="opacity:1" fill="#160a0a" d="M 200.5,120.5 C 201.14,118.668 202.14,118.335 203.5,119.5C 202.675,120.386 201.675,120.719 200.5,120.5 Z"/></g>
<g><path style="opacity:1" fill="#d59655" d="M 207.5,113.5 C 207.451,117.078 206.785,120.411 205.5,123.5C 205.159,119.84 205.825,116.507 207.5,113.5 Z"/></g>
<g><path style="opacity:1" fill="#86441b" d="M 132.5,120.5 C 131.833,120.833 131.167,121.167 130.5,121.5C 131.032,118.54 131.699,118.207 132.5,120.5 Z"/></g>
<g><path style="opacity:1" fill="#2d213a" d="M 200.5,120.5 C 199.308,122.113 198.308,123.78 197.5,125.5C 197.5,123.833 197.5,122.167 197.5,120.5C 197.369,119.624 197.702,118.957 198.5,118.5C 199.182,119.243 199.849,119.909 200.5,120.5 Z"/></g>
<g><path style="opacity:1" fill="#2c4d88" d="M 132.5,120.5 C 132.34,122.153 131.674,123.486 130.5,124.5C 130.5,123.5 130.5,122.5 130.5,121.5C 131.167,121.167 131.833,120.833 132.5,120.5 Z"/></g>
<g><path style="opacity:1" fill="#140f17" d="M 134.5,128.5 C 134.259,126.102 134.926,124.102 136.5,122.5C 136.5,121.833 136.5,121.167 136.5,120.5C 142.247,117.207 145.247,118.874 145.5,125.5C 142.5,125.5 139.5,125.5 136.5,125.5C 136.33,126.822 136.663,127.989 137.5,129C 140.308,129.238 142.974,128.904 145.5,128C 141.843,132.249 138.177,132.416 134.5,128.5 Z"/></g>
<g><path style="opacity:1" fill="#ece7e4" d="M 136.5,122.5 C 139.253,119.937 141.92,119.937 144.5,122.5C 141.691,123.8 139.024,123.8 136.5,122.5 Z"/></g>
<g><path style="opacity:1" fill="#1c1011" d="M 112.5,118.5 C 117.811,117.972 120.145,120.306 119.5,125.5C 116.167,125.5 112.833,125.5 109.5,125.5C 109.33,126.822 109.663,127.989 110.5,129C 113.419,129.54 116.086,129.207 118.5,128C 110.449,133.643 107.282,131.477 109,121.5C 110.145,120.364 111.312,119.364 112.5,118.5 Z"/></g>
<g><path style="opacity:1" fill="#ebeeec" d="M 112.5,120.5 C 114.167,120.5 115.833,120.5 117.5,120.5C 117.5,121.5 117.5,122.5 117.5,123.5C 115.076,123.808 112.743,123.474 110.5,122.5C 111.243,121.818 111.909,121.151 112.5,120.5 Z"/></g>
<g><path style="opacity:1" fill="#6d372d" d="M 150.5,125.5 C 149.833,126.5 149.167,127.5 148.5,128.5C 148.525,125.04 149.192,121.706 150.5,118.5C 151.575,120.811 151.575,123.144 150.5,125.5 Z"/></g>
<g><path style="opacity:1" fill="#343968" d="M 207.5,113.5 C 208.649,113.791 209.316,114.624 209.5,116C 208.455,119.587 207.288,123.087 206,126.5C 205.517,125.552 205.351,124.552 205.5,123.5C 206.785,120.411 207.451,117.078 207.5,113.5 Z"/></g>
<g><path style="opacity:1" fill="#1a0d15" d="M 186.5,118.5 C 191.5,118.167 193.833,120.5 193.5,125.5C 190.167,125.5 186.833,125.5 183.5,125.5C 183.33,126.822 183.663,127.989 184.5,129C 187.419,129.54 190.086,129.207 192.5,128C 184.449,133.643 181.282,131.477 183,121.5C 184.145,120.364 185.312,119.364 186.5,118.5 Z"/></g>
<g><path style="opacity:1" fill="#f2f6f1" d="M 186.5,120.5 C 188.665,120.116 190.332,120.783 191.5,122.5C 189.167,123.833 186.833,123.833 184.5,122.5C 185.243,121.818 185.909,121.151 186.5,120.5 Z"/></g>
<g><path style="opacity:1" fill="#dfa86c" d="M 136.5,120.5 C 136.5,121.167 136.5,121.833 136.5,122.5C 134.926,124.102 134.259,126.102 134.5,128.5C 132.993,125.382 133.66,122.715 136.5,120.5 Z"/></g>
<g><path style="opacity:1" fill="#daa260" d="M 123.5,118.5 C 123.927,122.824 124.261,127.158 124.5,131.5C 122.591,127.246 122.258,122.912 123.5,118.5 Z"/></g>
<g><path style="opacity:1" fill="#443d5f" d="M 123.5,118.5 C 124.222,118.918 124.722,119.584 125,120.5C 125.333,123.5 125.667,126.5 126,129.5C 127.274,126.609 128.774,123.942 130.5,121.5C 130.5,122.5 130.5,123.5 130.5,124.5C 129.634,127.954 127.634,130.288 124.5,131.5C 124.261,127.158 123.927,122.824 123.5,118.5 Z"/></g>
<g><path style="opacity:1" fill="#203b76" d="M 150.5,125.5 C 150.628,127.655 150.128,129.655 149,131.5C 148.517,130.552 148.351,129.552 148.5,128.5C 149.167,127.5 149.833,126.5 150.5,125.5 Z"/></g>
<g><path style="opacity:1" fill="#803a12" d="M 197.5,120.5 C 197.5,122.167 197.5,123.833 197.5,125.5C 197.5,126.167 197.5,126.833 197.5,127.5C 196.833,128.167 196.167,128.833 195.5,129.5C 195.676,126.273 196.343,123.273 197.5,120.5 Z"/></g>
<g><path style="opacity:1" fill="#1b1218" d="M 157.5,118.5 C 165.379,118.064 167.546,121.397 164,128.5C 158.76,133.239 155.594,132.239 154.5,125.5C 154.667,124.167 154.833,122.833 155,121.5C 156.045,120.627 156.878,119.627 157.5,118.5 Z"/></g>
<g><path style="opacity:1" fill="#ebe6e2" d="M 158.5,120.5 C 165.129,121.217 166.129,124.05 161.5,129C 157.798,130.393 155.798,129.226 155.5,125.5C 155.771,123.307 156.771,121.641 158.5,120.5 Z"/></g>
<g><path style="opacity:1" fill="#321b22" d="M 172.5,120.5 C 174.139,118.058 176.139,117.891 178.5,120C 180.519,124.877 179.186,128.543 174.5,131C 172.633,131.711 171.133,131.211 170,129.5C 169.624,132.01 168.79,134.343 167.5,136.5C 166.972,130.332 167.972,124.332 170.5,118.5C 171.182,119.243 171.849,119.909 172.5,120.5 Z"/></g>
<g><path style="opacity:1" fill="#f3f2eb" d="M 172.5,120.5 C 177.213,120.468 178.713,122.801 177,127.5C 173.508,130.59 171.342,129.923 170.5,125.5C 170.437,123.486 171.103,121.819 172.5,120.5 Z"/></g>
<g><path style="opacity:1" fill="#2e4f83" d="M 197.5,127.5 C 197.762,128.978 197.429,130.311 196.5,131.5C 195.702,131.043 195.369,130.376 195.5,129.5C 196.167,128.833 196.833,128.167 197.5,127.5 Z"/></g>
<g><path style="opacity:1" fill="#17285e" d="M 204.5,129.5 C 206.337,129.639 206.67,130.306 205.5,131.5C 204.702,131.043 204.369,130.376 204.5,129.5 Z"/></g>
</svg>
